<svg width="27" height="27" viewBox="0 0 27 27" fill="none" xmlns="http://www.w3.org/2000/svg">
<circle fill-opacity="0" cx="13.4086" cy="13.4077" r="12.5138" stroke-opacity="1" stroke="#B2B2B2" stroke-width="1.78769"/>
<path fill-opacity="0" d="M16.9834 13.4077C16.9834 17.0332 16.4431 20.2762 15.5981 22.5806C15.1743 23.7364 14.6909 24.609 14.1993 25.1762C13.7055 25.7457 13.2843 25.9215 12.9611 25.9215C12.6378 25.9215 12.2166 25.7457 11.7229 25.1762C11.2312 24.609 10.7478 23.7364 10.324 22.5806C9.47908 20.2762 8.93877 17.0332 8.93877 13.4077C8.93877 9.78213 9.47908 6.53916 10.324 4.23472C10.7478 3.07893 11.2312 2.20629 11.7229 1.63914C12.2166 1.06961 12.6378 0.893844 12.9611 0.893844C13.2843 0.893844 13.7055 1.06961 14.1993 1.63914C14.6909 2.20629 15.1743 3.07893 15.5981 4.23472C16.4431 6.53916 16.9834 9.78213 16.9834 13.4077Z" stroke="#B2B2B2" stroke-width="1.78769"/>
<path fill-opacity="0.5" d="M-0.000465445 13.8546L26.368 13.8546" stroke="#B2B2B2" stroke-width="1.78769"/>
</svg>
