<svg width="27" height="24" viewBox="0 0 27 24" fill="none" xmlns="http://www.w3.org/2000/svg">
<path fill-opacity="0" d="M16.5103 11.0559C19.1291 11.0559 21.252 8.92152 21.252 6.28867C21.252 3.65583 19.1291 1.52148 16.5103 1.52148C13.8915 1.52148 11.7686 3.65583 11.7686 6.28867C11.7686 8.92152 13.8915 11.0559 16.5103 11.0559Z" stroke="#B2B2B2" stroke-width="1.78769" stroke-linecap="round" stroke-linejoin="round"/>
<path fill-opacity="0" d="M25.9933 22.9738V20.5902C25.9933 19.3259 25.4937 18.1133 24.6045 17.2193C23.7152 16.3253 22.5092 15.823 21.2516 15.823H11.7681C10.5105 15.823 9.30444 16.3253 8.41519 17.2193C7.52594 18.1133 7.02637 19.3259 7.02637 20.5902V22.9738" stroke="#B2B2B2" stroke-width="1.78769"/>
<path fill-opacity="0" d="M0.941584 22.9738V20.5902C0.941584 19.3259 1.44116 18.1133 2.33041 17.2193C3.21965 16.3253 4.42573 15.823 5.68332 15.823H15.1668C16.4244 15.823 17.6305 16.3253 18.5197 17.2193C19.4089 18.1133 19.9085 19.3259 19.9085 20.5902V22.9738H0.0722656" stroke="#B2B2B2" stroke-width="1.78769"/>
<path fill-opacity="0" d="M10.4253 11.0559C13.0441 11.0559 15.1671 8.92152 15.1671 6.28867C15.1671 3.65583 13.0441 1.52148 10.4253 1.52148C7.80654 1.52148 5.68359 3.65583 5.68359 6.28867C5.68359 8.92152 7.80654 11.0559 10.4253 11.0559Z" stroke="#B2B2B2" stroke-width="1.78769" stroke-linecap="round" stroke-linejoin="round"/>
</svg>
