<svg width="25" height="27" viewBox="0 0 25 27" fill="none" xmlns="http://www.w3.org/2000/svg">
<path stroke-opacity="0" fill-rule="evenodd" clip-rule="evenodd" d="M21.3459 5.36307C22.3332 5.36307 23.1336 4.56269 23.1336 3.57538C23.1336 2.58806 22.3332 1.78769 21.3459 1.78769C20.3586 1.78769 19.5582 2.58806 19.5582 3.57538C19.5582 4.56269 20.3586 5.36307 21.3459 5.36307ZM21.3459 7.15075C23.3205 7.15075 24.9213 5.55 24.9213 3.57538C24.9213 1.60075 23.3205 0 21.3459 0C19.3713 0 17.7705 1.60075 17.7705 3.57538C17.7705 5.55 19.3713 7.15075 21.3459 7.15075Z" fill="#B2B2B2"/>
<path stroke-opacity="0" fill-rule="evenodd" clip-rule="evenodd" d="M20.4523 25.0276C21.4396 25.0276 22.24 24.2272 22.24 23.2399C22.24 22.2526 21.4396 21.4522 20.4523 21.4522C19.465 21.4522 18.6646 22.2526 18.6646 23.2399C18.6646 24.2272 19.465 25.0276 20.4523 25.0276ZM20.4523 26.8153C22.427 26.8153 24.0277 25.2146 24.0277 23.2399C24.0277 21.2653 22.427 19.6646 20.4523 19.6646C18.4777 19.6646 16.877 21.2653 16.877 23.2399C16.877 25.2146 18.4777 26.8153 20.4523 26.8153Z" fill="#B2B2B2"/>
<path stroke-opacity="0" fill-rule="evenodd" clip-rule="evenodd" d="M19.1347 3.68213L19.9823 5.25614L6.08808 12.7376C5.97283 12.1297 5.70368 11.5763 5.3227 11.1194L19.1347 3.68213ZM3.36824 15.0103C3.17584 15.1057 2.96382 15.1674 2.73987 15.1878L2.73993 15.1879C2.96386 15.1674 3.17586 15.1057 3.36824 15.0103ZM1.01261 14.2762C0.892372 14.0604 0.815563 13.817 0.793997 13.5579L0.793918 13.558C0.815479 13.817 0.892263 14.0603 1.01246 14.2762L1.01261 14.2762ZM5.86318 14.8149C5.61948 15.3835 5.23256 15.8762 4.7478 16.2476L17.8005 23.1365L18.6349 21.5555L5.86318 14.8149Z" fill="#B2B2B2"/>
<path stroke-opacity="0" fill-rule="evenodd" clip-rule="evenodd" d="M3.57538 15.3631C4.56269 15.3631 5.36307 14.5627 5.36307 13.5754C5.36307 12.5881 4.56269 11.7877 3.57538 11.7877C2.58806 11.7877 1.78769 12.5881 1.78769 13.5754C1.78769 14.5627 2.58806 15.3631 3.57538 15.3631ZM3.57538 17.1508C5.55 17.1508 7.15075 15.55 7.15075 13.5754C7.15075 11.6008 5.55 10 3.57538 10C1.60075 10 0 11.6008 0 13.5754C0 15.55 1.60075 17.1508 3.57538 17.1508Z" fill="#B2B2B2"/>
<circle fill-opacity="0" cx="3.57546" cy="13.5753" r="1.78769" fill="white"/>
</svg>
