<svg width="11" height="13" viewBox="0 0 11 13" fill="none" xmlns="http://www.w3.org/2000/svg">
<path d="M0.771484 13V0.203125H5.36816C7.01465 0.203125 8.26562 0.504883 9.12109 1.1084C9.98242 1.71191 10.4131 2.58789 10.4131 3.73633C10.4131 4.39844 10.2607 4.96387 9.95605 5.43262C9.65137 5.90137 9.20312 6.24707 8.61133 6.46973C9.2793 6.64551 9.79199 6.97363 10.1494 7.4541C10.5068 7.93457 10.6855 8.52051 10.6855 9.21191C10.6855 10.4658 10.2871 11.4092 9.49023 12.042C8.69922 12.6689 7.52441 12.9883 5.96582 13H0.771484ZM3.85645 7.55957V10.627H5.87793C6.43457 10.627 6.8623 10.501 7.16113 10.249C7.45996 9.99121 7.60938 9.63086 7.60938 9.16797C7.60938 8.10156 7.0791 7.56543 6.01855 7.55957H3.85645ZM3.85645 5.53809H5.46484C6.13867 5.53223 6.61914 5.40918 6.90625 5.16895C7.19336 4.92871 7.33691 4.57422 7.33691 4.10547C7.33691 3.56641 7.18164 3.17969 6.87109 2.94531C6.56055 2.70508 6.05957 2.58496 5.36816 2.58496H3.85645V5.53809Z" fill="#B2B2B2"/>
</svg>
