<svg width="25" height="23" viewBox="0 0 25 23" fill="none" xmlns="http://www.w3.org/2000/svg">
<rect x="6.41211" y="4" width="18.4175" height="1" fill="#B2B2B2"/>
<rect x="6.41211" y="12" width="18.4175" height="1" fill="#B2B2B2"/>
<rect x="6.41211" y="20" width="18.4175" height="1" fill="#B2B2B2"/>
<path d="M2.52051 6H1.81152V2.5752L0.765625 2.93262V2.33203L2.42969 1.71973H2.52051V6Z" fill="#B2B2B2"/>
<path d="M3.46094 14H0.592773V13.5107L2.01367 11.9609C2.21875 11.7324 2.36426 11.542 2.4502 11.3896C2.53809 11.2354 2.58203 11.0811 2.58203 10.9268C2.58203 10.7236 2.52441 10.5596 2.40918 10.4346C2.2959 10.3096 2.14258 10.2471 1.94922 10.2471C1.71875 10.2471 1.54004 10.3174 1.41309 10.458C1.28613 10.5986 1.22266 10.791 1.22266 11.0352H0.510742C0.510742 10.7754 0.569336 10.542 0.686523 10.335C0.805664 10.126 0.974609 9.96387 1.19336 9.84863C1.41406 9.7334 1.66797 9.67578 1.95508 9.67578C2.36914 9.67578 2.69531 9.78027 2.93359 9.98926C3.17383 10.1963 3.29395 10.4834 3.29395 10.8506C3.29395 11.0635 3.2334 11.2871 3.1123 11.5215C2.99316 11.7539 2.79688 12.0186 2.52344 12.3154L1.48047 13.4316H3.46094V14Z" fill="#B2B2B2"/>
<path d="M1.41602 19.542H1.84961C2.06836 19.54 2.24121 19.4834 2.36816 19.3721C2.49707 19.2607 2.56152 19.0996 2.56152 18.8887C2.56152 18.6855 2.50781 18.5283 2.40039 18.417C2.29492 18.3037 2.13281 18.2471 1.91406 18.2471C1.72266 18.2471 1.56543 18.3027 1.44238 18.4141C1.31934 18.5234 1.25781 18.667 1.25781 18.8447H0.545898C0.545898 18.626 0.603516 18.4268 0.71875 18.2471C0.835938 18.0674 0.998047 17.9277 1.20508 17.8281C1.41406 17.7266 1.64746 17.6758 1.90527 17.6758C2.33105 17.6758 2.66504 17.7832 2.90723 17.998C3.15137 18.2109 3.27344 18.5078 3.27344 18.8887C3.27344 19.0801 3.21191 19.2607 3.08887 19.4307C2.96777 19.5986 2.81055 19.7256 2.61719 19.8115C2.85156 19.8916 3.0293 20.0176 3.15039 20.1895C3.27344 20.3613 3.33496 20.5664 3.33496 20.8047C3.33496 21.1875 3.20312 21.4922 2.93945 21.7188C2.67773 21.9453 2.33301 22.0586 1.90527 22.0586C1.49512 22.0586 1.15918 21.9492 0.897461 21.7305C0.635742 21.5117 0.504883 21.2207 0.504883 20.8574H1.2168C1.2168 21.0449 1.2793 21.1973 1.4043 21.3145C1.53125 21.4316 1.70117 21.4902 1.91406 21.4902C2.13477 21.4902 2.30859 21.4316 2.43555 21.3145C2.5625 21.1973 2.62598 21.0273 2.62598 20.8047C2.62598 20.5801 2.55957 20.4072 2.42676 20.2861C2.29395 20.165 2.09668 20.1045 1.83496 20.1045H1.41602V19.542Z" fill="#B2B2B2"/>
</svg>
