<svg width="11" height="14" viewBox="0 0 11 14" fill="none" xmlns="http://www.w3.org/2000/svg">
<path d="M10.0615 0.203125V8.9043C10.0557 10.1113 9.6748 11.0986 8.91895 11.8662C8.16895 12.6338 7.14941 13.0645 5.86035 13.1582L5.41211 13.1758C4.01172 13.1758 2.89551 12.7979 2.06348 12.042C1.23145 11.2861 0.80957 10.2461 0.797852 8.92188V0.203125H2.46777V8.86914C2.46777 9.79492 2.72266 10.5156 3.23242 11.0312C3.74219 11.541 4.46875 11.7959 5.41211 11.7959C6.36719 11.7959 7.09668 11.541 7.60059 11.0312C8.11035 10.5215 8.36523 9.80371 8.36523 8.87793V0.203125H10.0615Z" fill="#B2B2B2"/>
</svg>
