<svg width="14" height="9" viewBox="0 0 14 9" fill="none" xmlns="http://www.w3.org/2000/svg">
<path fill-rule="evenodd" clip-rule="evenodd" d="M0 0.00708008H13.9945V9.00005H0V0.00708008Z" fill="#231E60"/>
<path d="M0 0.00708008V1.01176L12.4311 9.00005H13.9945V7.99537L1.56345 0.00708008H0ZM13.9945 0.00708008V1.01176L1.56345 9.00005H0V7.99537L12.4311 0.00708008H13.9945Z" fill="white"/>
<path d="M5.83288 0.00708008V9.00005H8.16712V0.00708008H5.83288ZM0 3.00005V6.00005H13.9945V3.00005H0Z" fill="white"/>
<path d="M0 3.60427V5.40286H13.9945V3.60427H0ZM6.29754 0.00708008V9.00005H7.69699V0.00708008H6.29754Z" fill="#BA2025"/>
<path d="M0 9L4.66302 6H5.70715L1.04412 9H0ZM0 0.00702565L4.66302 3.00703H3.62437L0 0.674473V0.00702565ZM8.28739 3L12.9504 0H13.9945L9.33151 3H8.28739ZM13.9945 9L9.33151 6H10.3756L14 8.32553V9H13.9945Z" fill="#BA2025"/>
</svg>
