<svg width="30" height="30" viewBox="0 0 30 30" fill="none" xmlns="http://www.w3.org/2000/svg">
<path d="M17.3896 9.3103L12.414 14.4828L17.3896 19.6552" stroke="#C63638" stroke-linejoin="round"/>
<path fill-rule="evenodd" clip-rule="evenodd" d="M5.96007e-07 15C1.32024e-06 23.2843 6.7157 30 15 30C23.2843 30 30 23.2843 30 15C30 6.7157 23.2843 2.49446e-06 15 3.21869e-06C6.7157 3.94293e-06 -1.28229e-07 6.7157 5.96007e-07 15ZM28.9655 15C28.9655 22.7129 22.7129 28.9655 15 28.9655C7.2871 28.9655 1.0345 22.7129 1.0345 15C1.0345 7.2871 7.2871 1.0345 15 1.0345C22.7129 1.0345 28.9655 7.2871 28.9655 15Z" fill="#C63638"/>
</svg>
