<?xml version="1.0" encoding="utf-8"?>
<!-- Svg Vector Icons : http://www.onlinewebfonts.com/icon -->
<!DOCTYPE svg PUBLIC "-//W3C//DTD SVG 1.1//EN" "http://www.w3.org/Graphics/SVG/1.1/DTD/svg11.dtd">
<svg version="1.1" xmlns="http://www.w3.org/2000/svg" xmlns:xlink="http://www.w3.org/1999/xlink" x="0px" y="0px" viewBox="0 0 1000 1000" enable-background="new 0 0 1000 1000" xml:space="preserve">
<metadata> Svg Vector Icons : http://www.onlinewebfonts.com/icon </metadata>
<g><path d="M61.8,259.3c0,81.5,27.2,140.3,80.9,174.9c44,28.4,94.9,32.6,121.5,32.6c6.4,0,11.6-0.3,15.2-0.5c0,0-8.4,54.8,32.2,108.9h-1.9C239.4,575.2,10,589.9,10,778.5c0,191.8,210.7,201.6,253,201.6c3.3,0,5.3-0.1,5.3-0.1c0.4,0,3.4,0.1,8.6,0.1c27.1,0,97.2-3.4,162.3-35.1c84.5-40.9,127.3-112.3,127.3-212c0-96.2-65.3-153.5-112.9-195.4c-29.1-25.6-54.2-47.6-54.2-69.1c0-21.8,18.4-38.2,41.6-59C478.5,376,514,328.1,514,237.7c0-79.5-10.3-132.9-73.9-166.8c6.6-3.4,30.1-5.8,41.6-7.5c34.4-4.7,84.8-10,84.8-38.1v-5.4H315.6C313.1,20,61.8,29.2,61.8,259.3z M466.9,751.1c4.8,76.7-60.8,133.3-159.4,140.4c-100.1,7.4-182.5-37.7-187.3-114.4c-2.3-36.9,13.9-72.9,45.6-101.7c32.1-29.1,76.3-47.1,124.3-50.6c5.7-0.3,11.3-0.7,16.9-0.7C399.6,624.3,462.4,678.7,466.9,751.1z M401.4,206.8c24.6,86.6-12.5,177.1-71.8,193.9c-6.8,1.9-13.8,2.8-21,2.8c-54.2,0-108-54.9-127.9-130.6c-11.1-42.3-10.2-79.6,2.6-115.2c12.5-35.2,35.1-58.8,63.5-66.8c6.8-1.9,13.9-2.9,21-2.9C333.2,87.9,375.3,115.1,401.4,206.8z M826.3,390.9V227.2H717.2v163.7H553.5V500h163.7v163.7h109.1V500H990V390.9H826.3z"/></g>
</svg>