<svg width="81" height="81" viewBox="0 0 81 81" fill="none" xmlns="http://www.w3.org/2000/svg">
<rect width="81" height="81" rx="40.5" fill="#D72130"/>
<path d="M23.8106 51.5807C23.8107 51.5805 23.8108 51.5803 23.8109 51.5801L40.2541 23.1007C40.2543 23.1003 40.2546 23.0999 40.2548 23.0995C40.3249 22.9797 40.4252 22.8803 40.5455 22.8111C40.6663 22.7417 40.8032 22.7052 40.9425 22.7052C41.0818 22.7052 41.2187 22.7417 41.3394 22.8111C41.4599 22.8803 41.5602 22.9798 41.6303 23.0997C41.6305 23.1 41.6307 23.1004 41.6309 23.1007L58.0741 51.5801C58.0743 51.5804 58.0745 51.5808 58.0746 51.5811C58.1437 51.7018 58.1799 51.8385 58.1798 51.9776C58.1796 52.1171 58.1429 52.2541 58.0732 52.3749C58.0035 52.4957 57.9033 52.5961 57.7827 52.666C57.6623 52.7359 57.5258 52.7729 57.3866 52.7736H24.4984C24.3592 52.7729 24.2227 52.7359 24.1023 52.666C23.9817 52.5961 23.8815 52.4957 23.8118 52.3749C23.7421 52.2541 23.7054 52.1171 23.7052 51.9776C23.7051 51.8384 23.7414 51.7015 23.8106 51.5807Z" fill="white" stroke="white" stroke-width="1.41044"/>
<path d="M40.9433 48.4788H40.9283L40.9133 48.4794C40.7298 48.4872 40.5468 48.4569 40.3757 48.3902C40.2046 48.3236 40.0492 48.2221 39.9193 48.0923C39.7895 47.9625 39.6881 47.8071 39.6214 47.636C39.5548 47.4649 39.5244 47.2818 39.5322 47.0984L38.8276 47.0683H39.5329C39.5329 46.7894 39.6156 46.5167 39.7706 46.2847C39.9255 46.0528 40.1458 45.872 40.4035 45.7653C40.6613 45.6585 40.9449 45.6306 41.2185 45.685C41.4921 45.7394 41.7434 45.8738 41.9406 46.071C42.1379 46.2683 42.2722 46.5196 42.3266 46.7932C42.3811 47.0668 42.3531 47.3504 42.2464 47.6081C42.1396 47.8658 41.9588 48.0861 41.7269 48.2411C41.4949 48.3961 41.2223 48.4788 40.9433 48.4788ZM41.5833 43.0768H40.2667L39.8022 33.909H42.0294L41.5833 43.0768Z" fill="#D72130" stroke="#D72130" stroke-width="1.41044"/>
</svg>
