<svg width="81" height="81" viewBox="0 0 81 81" fill="none" xmlns="http://www.w3.org/2000/svg">
<rect width="81" height="81" rx="40.5" fill="#D72130"/>
<path d="M29.574 30.3018C29.574 29.7495 30.0217 29.3018 30.574 29.3018H50.6303C51.1825 29.3018 51.6303 29.7495 51.6303 30.3018V53.6598C51.6303 55.869 49.8394 57.6598 47.6303 57.6598H33.574C31.3648 57.6598 29.574 55.869 29.574 53.6598V30.3018Z" fill="white"/>
<rect x="28.0002" y="26.1504" width="25.2072" height="3.1509" rx="1" fill="white"/>
<rect x="35.0906" y="23" width="11.0281" height="3.1509" rx="1" fill="white"/>
<rect x="36.6648" y="24.5762" width="7.87724" height="1.57545" fill="#D72130"/>
<rect x="32.7252" y="31.665" width="1.57545" height="22.0563" rx="0.787724" fill="#D72130"/>
<rect x="39.8169" y="31.665" width="1.57545" height="22.0563" rx="0.787724" fill="#D72130"/>
<rect x="46.9044" y="31.665" width="1.57545" height="22.0563" rx="0.787724" fill="#D72130"/>
</svg>
