<svg width="63" height="63" viewBox="0 0 63 63" fill="none" xmlns="http://www.w3.org/2000/svg">
<circle cx="31.5" cy="31.5" r="31.5" fill="#D72130"/>
<path d="M44.4008 23.4413H39.5817L36.6973 20.5284C36.6973 20.5284 36.683 20.5141 36.6759 20.5141L36.6616 20.4998C36.2333 20.0715 35.655 19.8002 34.9981 19.8002H29.001C28.3014 19.8002 27.6802 20.1 27.2447 20.5784V20.5855L24.4247 23.4413H19.4985C18.1705 23.4413 17.0996 24.4836 17.0996 25.8116V40.2403C17.0996 41.5683 18.1705 42.6463 19.4985 42.6463H44.4008C45.7216 42.6463 46.7996 41.5683 46.7996 40.2403V25.8116C46.7996 24.4836 45.7216 23.4413 44.4008 23.4413ZM31.9496 39.0409C28.3156 39.0409 25.3528 36.0709 25.3528 32.4298C25.3528 28.7816 28.3156 25.8187 31.9496 25.8187C35.5907 25.8187 38.5464 28.7816 38.5464 32.4298C38.5464 36.0709 35.5907 39.0409 31.9496 39.0409ZM43.951 27.2609C43.4012 27.2609 42.9515 26.8111 42.9515 26.2542C42.9515 25.6973 43.4012 25.2476 43.951 25.2476C44.5007 25.2476 44.9505 25.6973 44.9505 26.2542C44.9505 26.8111 44.5007 27.2609 43.951 27.2609Z" fill="white"/>
<path d="M31.9501 27.432C29.1943 27.432 26.9668 29.6666 26.9668 32.4296C26.9668 35.1854 29.1943 37.4272 31.9501 37.4272C34.6988 37.4272 36.9334 35.1926 36.9334 32.4296C36.9334 29.6666 34.6988 27.432 31.9501 27.432Z" fill="white"/>
</svg>
